<svg width="50" height="71" viewBox="0 0 50 71" fill="none" xmlns="http://www.w3.org/2000/svg">
<path d="M35.1868 1.75753C35.7595 2.46837 36.0516 3.42808 36.636 5.34751L49.3994 47.2753C44.6051 44.7873 39.4594 43.0453 34.1397 42.1092L25.8298 14.0261C25.7636 13.8021 25.6265 13.6055 25.4393 13.4658C25.252 13.3261 25.0245 13.2508 24.7908 13.2512C24.5572 13.2516 24.3299 13.3276 24.1431 13.4679C23.9563 13.6082 23.8199 13.8052 23.7543 14.0295L15.5447 42.095C10.2012 43.0269 5.03193 44.7718 0.216797 47.269L13.0427 5.33752C13.6291 3.42184 13.9221 2.46379 14.4951 1.7542C15.0007 1.12742 15.6583 0.640553 16.4054 0.34002C17.2523 0 18.2541 0 20.258 0H29.419C31.425 0 32.428 0 33.2753 0.341268C34.0232 0.642158 34.6811 1.12977 35.1868 1.75753Z" fill="black"/>
<path d="M36.7141 49.2708C34.6103 51.07 30.4106 52.2969 25.5729 52.2969C19.6357 52.2969 14.6594 50.4486 13.3389 47.9628C12.8665 49.3874 12.7608 51.0175 12.7608 52.0597C12.7608 52.0597 12.4499 57.1745 16.007 60.7316C16.0071 59.8446 16.3596 58.9939 16.9868 58.3667C17.6141 57.7395 18.4648 57.3872 19.3518 57.3872C22.5177 57.3872 22.5144 60.1494 22.5115 62.3905V62.5903C22.5115 65.9917 24.5903 68.9079 27.5469 70.1369C27.0917 69.2002 26.8558 68.1722 26.8573 67.1308C26.8573 63.8867 28.7621 62.6785 30.9758 61.2751C32.7366 60.1577 34.6935 58.9166 36.0424 56.4271C36.7685 55.086 37.1476 53.5847 37.1453 52.0597C37.1453 51.087 36.9942 50.1502 36.7141 49.2708Z" fill="#FF5D01"/>
</svg>
