<svg width="128" height="90" viewBox="0 0 128 90" fill="none" xmlns="http://www.w3.org/2000/svg">
<path id="download" d="M106.955 39.5098C107.764 37.3828 108.217 35.057 108.217 32.6319C108.217 22.0964 99.7342 13.5487 89.2783 13.5487C85.3918 13.5487 81.7618 14.7414 78.7631 16.769C73.2984 7.22736 63.0989 0.826538 51.4 0.826538C33.9602 0.826538 19.8348 15.0594 19.8348 32.6319C19.8348 33.1686 19.8545 33.7053 19.8742 34.242C8.82641 38.1581 0.895653 48.7731 0.895653 61.2567C0.895653 77.06 13.6204 89.8815 29.3043 89.8815H101.904C115.852 89.8815 127.157 78.4912 127.157 64.4372C127.157 52.1325 118.476 41.8554 106.955 39.5098ZM80.7359 57.1419L59.9423 78.0937C58.7192 79.3261 56.7069 79.3261 55.4838 78.0937L34.6902 57.1419C32.6976 55.1342 34.118 51.7151 36.9195 51.7151H49.8217V29.4513C49.8217 27.7021 51.2422 26.2708 52.9783 26.2708H62.4478C64.1839 26.2708 65.6043 27.7021 65.6043 29.4513V51.7151H78.5066C81.308 51.7151 82.7285 55.1342 80.7359 57.1419Z" fill="black"/>
</svg>
