<svg width="127" height="127" viewBox="0 0 127 127" fill="none" xmlns="http://www.w3.org/2000/svg">
<g id="dribbble">
<path id="Vector" d="M63.527 4.36499C96.1683 4.36499 122.578 30.7708 122.578 63.3577C122.578 95.9446 96.1683 122.4 63.527 122.4C30.8857 122.4 4.47595 95.9941 4.47595 63.4072C4.47595 30.8202 30.8857 4.36499 63.527 4.36499Z" fill="#E74D89"/>
<path id="Vector_2" d="M63.5275 126.603C28.6112 126.603 0.223206 98.2688 0.223206 63.4072C0.223206 28.4962 28.6112 0.161865 63.5275 0.161865C98.4439 0.161865 126.832 28.4962 126.832 63.3578C126.832 98.2193 98.4439 126.603 63.5275 126.603ZM116.891 72.0113C115.061 71.418 100.175 67.017 83.2112 69.6872C90.2835 89.0713 93.152 104.895 93.696 108.159C105.862 99.9995 114.517 87.0439 116.891 72.0113ZM84.6455 113.153C83.8542 108.406 80.689 91.8899 73.1221 72.2091C73.0232 72.2586 72.8748 72.308 72.7759 72.308C42.2612 82.9396 31.3314 104.054 30.3422 106.032C39.4917 113.153 51.0151 117.406 63.5275 117.406C70.9955 117.455 78.1667 115.922 84.6455 113.153ZM23.3689 99.5545C24.6053 97.4776 39.4422 72.9509 67.3357 63.9017C68.0281 63.6545 68.7699 63.4567 69.4623 63.2589C68.127 60.193 66.6433 57.1272 65.0607 54.1108C38.0574 62.171 11.8455 61.8248 9.47157 61.7754C9.47157 62.3193 9.42212 62.8633 9.42212 63.4072C9.47157 77.3024 14.714 89.9614 23.3689 99.5545ZM10.6091 52.3801C13.0324 52.4295 35.2879 52.5284 60.6096 45.8033C51.658 29.8807 41.9645 16.5295 40.5797 14.601C25.3966 21.7217 14.1205 35.6663 10.6091 52.3801ZM50.8667 10.9418C52.3504 12.9197 62.1922 26.271 71.0449 42.5397C90.2835 35.3201 98.3944 24.4414 99.3835 23.0568C89.8384 14.601 77.2765 9.45829 63.5275 9.45829C59.1754 9.45829 54.9221 10.0022 50.8667 10.9418ZM105.368 29.2874C104.23 30.8203 95.1797 42.4408 75.1993 50.5999C76.4357 53.1713 77.6721 55.7921 78.8096 58.4129C79.2053 59.3524 79.6009 60.2919 79.9966 61.182C97.9987 58.9073 115.853 62.5666 117.633 62.9127C117.485 50.2043 112.935 38.4849 105.368 29.2874Z" fill="#B2215A"/>
</g>
</svg>
