<svg width="114" height="113" viewBox="0 0 114 113" fill="none" xmlns="http://www.w3.org/2000/svg">
<mask id="mask0_563_2981" style="mask-type:luminance" maskUnits="userSpaceOnUse" x="0" y="0" width="114" height="113">
<path d="M56.9388 112.999C25.8956 112.999 0.730072 87.8224 0.730072 56.7649C0.730072 25.7075 25.8956 0.530457 56.9388 0.530457C87.982 0.530457 113.147 25.7075 113.147 56.7649C113.147 87.8224 87.982 112.999 56.9388 112.999Z" fill="white"/>
</mask>
<g mask="url(#mask0_563_2981)">
<mask id="mask1_563_2981" style="mask-type:luminance" maskUnits="userSpaceOnUse" x="-41" y="0" width="195" height="113">
<path d="M-40.3022 0.0124512H153.056V112.862H-40.3022V0.0124512Z" fill="white"/>
</mask>
<g mask="url(#mask1_563_2981)">
<path d="M-40.3022 0.0124512H153.056V112.862H-40.3022V0.0124512Z" fill="white"/>
<path d="M23.5868 40.8124L-40.3019 5.03294V0.0124512H-35.8914L36.9551 40.8124H23.5868Z" fill="#BD1F38"/>
<path d="M26.6084 74.3288L-40.3024 111.784V104.296L13.2357 74.3288H26.6084Z" fill="#BD1F38"/>
<path d="M153.056 8.61073L95.8258 40.8125H82.4519L153.056 1.10968V8.61073Z" fill="#BD1F38"/>
<path d="M85.4766 74.3288L153.056 112.208V112.862H140.855L72.1045 74.3288H85.4766Z" fill="#BD1F38"/>
<path d="M-27.0771 0.0124512H40.625V37.9526L-27.0771 0.0124512Z" fill="#2C3077"/>
<path d="M70.5268 0.0124512H137.954L70.5268 37.9526V0.0124512Z" fill="#2C3077"/>
<path d="M-40.3027 40.8124V14.9271L5.62109 40.8124H-40.3027Z" fill="#2C3077"/>
<path d="M-40.3027 99.9348V74.3288H5.62109L-40.3027 99.9348Z" fill="#2C3077"/>
<path d="M134.126 112.862H70.5265V77.1943L134.126 112.862Z" fill="#2C3077"/>
<path d="M40.625 112.862H-23.1744L40.625 77.1943V112.862Z" fill="#2C3077"/>
<path d="M153.056 74.3288V101.09L105.532 74.3288H153.056Z" fill="#2C3077"/>
<path d="M153.056 40.8124H105.532L153.056 14.0104V40.8124Z" fill="#2C3077"/>
<path d="M64.547 0.0124512V47.5193H153.056V67.6282H64.547V112.862H46.6033V67.6282H-40.3022V47.5193H46.6033V0.0124512H64.547Z" fill="#BD1F38"/>
</g>
</g>
</svg>
