<svg width="54" height="51" viewBox="0 0 54 51" fill="none" xmlns="http://www.w3.org/2000/svg">
<path d="M44.3578 25.5235V8.82555H29.4465L27.2003 12.4704H40.3267V17.9102L44.3578 25.5235Z" fill="#8BC34A"/>
<path d="M14.4768 12.4704H17.3128L19.2124 8.82555H10.4457V15.2544H14.4768V12.4704Z" fill="#8BC34A"/>
<path d="M40.3267 38.9084C39.935 40.1152 37.3669 46.6193 27.6347 46.6193C17.1147 46.6193 15.0035 40.4774 14.9247 40.2312L11.0354 41.1897C11.148 41.5601 13.9299 50.2622 27.6347 50.2622C35.7464 50.2622 40.4347 46.4667 42.7237 42.9867L40.3267 36.454V38.9084Z" fill="#8BC34A"/>
<path d="M49.7506 41.5438L36.5409 16.2801L31.6388 16.2007L38.4518 28.8936H16.2279L27.3016 7.01635H32.1655L30.8285 4.66581L28.4967 4.6536H28.499L33.6937 4.68209L33.7185 1.03723L25.9174 0.994492L25.9151 1.0006H20.6236V4.64546H24.0695L5.17673 41.9732L0 42.0322L0.0517673 45.6771L7.77859 45.5875L14.3845 32.5385H40.4077L47.1982 45.1887H54V41.5438H49.7506Z" fill="#8BC34A"/>
</svg>
