<svg width="50" height="75" viewBox="0 0 50 75" fill="none" xmlns="http://www.w3.org/2000/svg">
<path d="M13.0007 74.6696C19.7879 74.6696 25.2964 69.1611 25.2964 62.3739V50.0783H13.0007C6.21353 50.0783 0.705078 55.5867 0.705078 62.3739C0.705078 69.1611 6.21353 74.6696 13.0007 74.6696Z" fill="#0ACF83"/>
<path d="M0.705078 37.7826C0.705078 30.9954 6.21353 25.487 13.0007 25.487H25.2964V50.0783H13.0007C6.21353 50.0783 0.705078 44.5698 0.705078 37.7826Z" fill="#A259FF"/>
<path d="M0.705078 13.1913C0.705078 6.40411 6.21353 0.89566 13.0007 0.89566H25.2964V25.487H13.0007C6.21353 25.487 0.705078 19.9785 0.705078 13.1913Z" fill="#F24E1E"/>
<path d="M25.2969 0.89566H37.5925C44.3797 0.89566 49.8882 6.40411 49.8882 13.1913C49.8882 19.9785 44.3797 25.487 37.5925 25.487H25.2969V0.89566Z" fill="#FF7262"/>
<path d="M49.8882 37.7826C49.8882 44.5698 44.3797 50.0783 37.5925 50.0783C30.8053 50.0783 25.2969 44.5698 25.2969 37.7826C25.2969 30.9954 30.8053 25.487 37.5925 25.487C44.3797 25.487 49.8882 30.9954 49.8882 37.7826Z" fill="#1ABCFE"/>
</svg>
