<svg width="51" height="69" viewBox="0 0 51 69" fill="none" xmlns="http://www.w3.org/2000/svg">
<path d="M0.956055 55.0244L1.36591 54.453L20.7014 17.7734L20.7424 17.3853L12.2198 1.3768C12.0638 1.08406 11.8197 0.84779 11.522 0.701417C11.2243 0.555044 10.8881 0.505979 10.561 0.561162C10.2339 0.616346 9.93247 0.772984 9.69928 1.00892C9.4661 1.24485 9.313 1.54813 9.26165 1.87586L0.956055 55.0244Z" fill="#FFC24A"/>
<path d="M26.9553 29.4929L33.3008 22.9834L26.9529 10.8783C26.8132 10.6177 26.6054 10.4 26.3517 10.2482C26.0981 10.0964 25.808 10.0162 25.5124 10.0162C25.2167 10.0162 24.9266 10.0964 24.673 10.2482C24.4193 10.4 24.2116 10.6177 24.0718 10.8783L20.6797 17.3443V17.8964L26.9553 29.4929Z" fill="#F4BD62"/>
<path d="M0.960938 55.0268L1.14658 54.8387L1.81922 54.5663L26.5552 29.922L26.8686 29.0685L20.6991 17.3081L0.960938 55.0268Z" fill="#F6820C"/>
<path d="M27.7461 67.4551L50.1387 54.969L43.7401 15.5964C43.6942 15.3188 43.5728 15.0593 43.3891 14.8462C43.2054 14.6332 42.9665 14.4749 42.6987 14.3887C42.4309 14.3025 42.1445 14.2917 41.8711 14.3576C41.5976 14.4235 41.3475 14.5635 41.1484 14.7622L0.956055 55.0244L23.216 67.4527C23.908 67.8389 24.6874 68.0416 25.4799 68.0416C26.2723 68.0416 27.0517 67.8389 27.7437 67.4527" fill="#FDE068"/>
<path d="M1.19727 54.5904L1.50586 53.9877L20.6413 17.689L12.1404 1.61789C12.0002 1.3384 11.7732 1.11185 11.4935 0.972195C11.2137 0.832538 10.8963 0.787286 10.5886 0.84322C10.281 0.899153 9.99975 1.05326 9.78706 1.28245C9.57437 1.51165 9.44166 1.80359 9.40883 2.11453L1.19727 54.5904Z" fill="#FFA712"/>
<path d="M26.8418 29.2276L33.0113 22.911L26.8418 11.1457C26.7408 10.8911 26.5683 10.6711 26.3451 10.5122C26.1219 10.3534 25.8575 10.2625 25.5838 10.2505C25.3101 10.2385 25.0388 10.306 24.8026 10.4447C24.5664 10.5834 24.3753 10.7876 24.2525 11.0324L20.8434 17.6118L20.7422 17.9469L26.8418 29.2276Z" fill="#FFA50E"/>
<path d="M49.9339 54.8653L43.5883 15.7892C43.5771 15.5237 43.4874 15.2676 43.3306 15.0531C43.1737 14.8386 42.9567 14.6755 42.7071 14.5844C42.4575 14.4933 42.1865 14.4782 41.9284 14.5412C41.6702 14.6042 41.4366 14.7423 41.257 14.9382L1.19727 54.9497L23.2113 67.2453C23.8978 67.6283 24.6709 67.8294 25.4571 67.8294C26.2432 67.8294 27.0163 67.6283 27.7028 67.2453L49.9339 54.8653Z" fill="#FCCA3F"/>
<path d="M27.7461 67.079C27.0541 67.4652 26.2748 67.6679 25.4823 67.6679C24.6898 67.6679 23.9105 67.4652 23.2184 67.079L1.13928 54.8364L0.956055 55.0244L23.216 67.4527C23.908 67.8389 24.6874 68.0416 25.4799 68.0416C26.2723 68.0416 27.0517 67.8389 27.7437 67.4527L50.1387 54.969L50.0832 54.6315L27.7461 67.079Z" fill="#EEAB37"/>
</svg>
