<svg width="50" height="62" viewBox="0 0 50 62" fill="none" xmlns="http://www.w3.org/2000/svg">
<path d="M30.629 0.414362L49.4443 0.391304L17.8549 31.9576L9.62325 40.1663L0.261719 30.7817L30.629 0.414362ZM30.4446 28.6142C30.6982 28.2914 31.1363 28.4298 31.4822 28.4067H49.4443L33.0732 44.7548L23.6655 35.3933L30.4446 28.6142Z" fill="#44D1FD"/>
<path d="M14.2812 44.7779L23.6658 35.3933L33.0735 44.7548L33.1196 44.8009L23.6658 54.1624L14.2812 44.7779Z" fill="#1FBCFD"/>
<path d="M23.666 54.1624L33.1198 44.8009L49.4448 61.149C43.2883 61.149 37.1549 61.149 30.9984 61.149C30.6526 61.2412 30.422 60.9184 30.2145 60.7109L23.666 54.1624Z" fill="#08589C"/>
</svg>
