<svg width="57" height="57" viewBox="0 0 57 57" fill="none" xmlns="http://www.w3.org/2000/svg">
<g clip-path="url(#clip0_800_1309)">
<path d="M55.1042 26.0447L30.9909 1.93235C29.6032 0.543724 27.3509 0.543724 25.961 1.93235L20.9542 6.93997L27.3059 13.2916C28.7824 12.7933 30.4747 13.1275 31.6511 14.304C32.8337 15.4878 33.1653 17.1945 32.6547 18.6759L38.7762 24.7978C40.2572 24.2873 41.9665 24.6172 43.1486 25.8019C44.8024 27.4544 44.8024 30.1332 43.1486 31.7865C42.7556 32.1797 42.289 32.4916 41.7754 32.7044C41.2619 32.9172 40.7114 33.0267 40.1555 33.0267C39.5995 33.0267 39.0491 32.9172 38.5355 32.7044C38.0219 32.4916 37.5553 32.1797 37.1623 31.7865C36.5719 31.1957 36.1694 30.4434 36.0055 29.6243C35.8416 28.8053 35.9237 27.9561 36.2414 27.1835L30.5329 21.475L30.532 36.4992C30.9462 36.7032 31.3243 36.9733 31.6516 37.299C33.3044 38.9514 33.3044 41.6294 31.6516 43.2853C29.9982 44.9377 27.3186 44.9377 25.667 43.2853C24.0141 41.6298 24.0141 38.9518 25.667 37.299C26.063 36.9023 26.534 36.5885 27.0526 36.3758V21.2125C26.5336 21.0004 26.0624 20.6864 25.667 20.289C24.4149 19.0377 24.1134 17.2002 24.7557 15.662L18.4937 9.40004L1.95974 25.9332C1.2927 26.6004 0.917969 27.5053 0.917969 28.4488C0.917969 29.3923 1.2927 30.2972 1.95974 30.9644L26.0734 55.0768C27.4621 56.4654 29.7134 56.4654 31.1042 55.0768L55.1046 31.0764C55.7715 30.409 56.1461 29.504 56.146 28.5605C56.146 27.6169 55.7712 26.7121 55.1042 26.0447Z" fill="#F34F29"/>
</g>
<defs>
<clipPath id="clip0_800_1309">
<rect width="56" height="56" fill="white" transform="translate(0.53125 0.504349)"/>
</clipPath>
</defs>
</svg>
