<svg width="56" height="56" viewBox="0 0 56 56" fill="none" xmlns="http://www.w3.org/2000/svg">
<g clip-path="url(#clip0_563_5221)">
<path d="M0 0H56V56H0V0Z" fill="#F7DF1E"/>
<path d="M14.7248 46.7976L19.0101 44.2041C19.837 45.67 20.5891 46.9103 22.3931 46.9103C24.1223 46.9103 25.2128 46.2339 25.2128 43.6028V25.7095H30.4753V43.6772C30.4753 49.1278 27.2802 51.6088 22.6186 51.6088C18.4088 51.6088 15.9651 49.4285 14.7246 46.7972M33.3337 46.2337L37.6185 43.7528C38.7466 45.5949 40.2127 46.9481 42.8062 46.9481C44.9869 46.9481 46.3773 45.8579 46.3773 44.3542C46.3773 42.5499 44.9489 41.9107 42.543 40.8586L41.2277 40.2942C37.4309 38.6783 34.9124 36.6483 34.9124 32.363C34.9124 28.4158 37.9195 25.4085 42.6185 25.4085C45.9641 25.4085 48.3699 26.574 50.0989 29.6187L46.0013 32.2503C45.0989 30.634 44.122 29.995 42.6183 29.995C41.077 29.995 40.0996 30.9724 40.0996 32.2503C40.0996 33.829 41.077 34.4684 43.3323 35.4458L44.6479 36.0095C49.1213 37.9269 51.6398 39.8814 51.6398 44.2792C51.6398 49.016 47.9184 51.6095 42.9189 51.6095C38.0322 51.6095 34.8745 49.2789 33.3335 46.2339" fill="black"/>
</g>
<defs>
<clipPath id="clip0_563_5221">
<rect width="56" height="56" fill="white"/>
</clipPath>
</defs>
</svg>
