<svg width="127" height="127" viewBox="0 0 127 127" fill="none" xmlns="http://www.w3.org/2000/svg">
<path d="M126.481 109.17C126.481 118.882 118.654 126.751 108.993 126.751H18.056C8.39921 126.751 0.568115 118.882 0.568115 109.17V17.7438C0.568115 8.03152 8.39921 0.161865 18.056 0.161865H108.993C118.654 0.161865 126.481 8.03152 126.481 17.7438V109.17Z" fill="#0078D4"/>
<path d="M21.5536 45.8748H39.0415V105.653H21.5536V45.8748ZM30.2451 38.842H30.1472C24.9288 38.842 21.5536 34.9318 21.5536 30.0476C21.5536 25.0578 25.0337 21.2601 30.3465 21.2601C35.6663 21.2601 38.9436 25.0578 39.0415 30.0476C39.0415 34.9283 35.6663 38.842 30.2451 38.842ZM105.496 105.653H88.0077V73.6577C88.0077 65.9287 83.7232 60.6541 76.8434 60.6541C71.5935 60.6541 68.7535 64.2127 67.3754 67.6517C66.8718 68.8824 67.0222 72.2863 67.0222 74.0058V105.653H49.5343V45.8748H67.0222V55.0736C69.5439 51.1493 73.4927 45.8748 83.5937 45.8748C96.1081 45.8748 105.492 53.7866 105.492 71.4529L105.496 105.653Z" fill="white"/>
</svg>
