<svg width="89" height="81" viewBox="0 0 89 81" fill="none" xmlns="http://www.w3.org/2000/svg">
<path d="M73.1082 40.3277V12.8749H48.5323L44.8301 18.8673H66.4643V27.8108L73.1082 40.3277Z" fill="#8BC34A"/>
<path d="M23.86 18.8673H28.534L31.6649 12.8749H17.2161V23.4445H23.86V18.8673Z" fill="#8BC34A"/>
<path d="M66.4643 62.3334C65.8189 64.3175 61.5863 75.0109 45.5461 75.0109C28.2075 75.0109 24.728 64.9131 24.5981 64.5082L18.188 66.0841C18.3735 66.6931 22.9585 81 45.5461 81C58.9154 81 66.6424 74.76 70.415 69.0385L66.4643 58.2983V62.3334Z" fill="#8BC34A"/>
<path d="M81.9963 66.6663L60.2249 25.1308L52.1454 25.0003L63.3743 45.8684H26.746L44.9971 9.90041H53.0135L50.81 6.03594L46.9669 6.01586H46.9706L55.5323 6.06271L55.5731 0.0702631L42.7157 0L42.712 0.0100376H33.9908V6.00248H39.6701L8.53201 67.3723L0 67.4693L0.0853201 73.4618L12.8203 73.3146L23.7079 51.8609H66.5979L77.7897 72.6588H89V66.6663H81.9963Z" fill="#8BC34A"/>
</svg>
