<svg width="128" height="96" viewBox="0 0 128 96" fill="none" xmlns="http://www.w3.org/2000/svg">
<g id="mail">
<path id="mail_2" d="M124.764 31.7104C125.726 30.9415 127.157 31.6608 127.157 32.8761V83.5983C127.157 90.1711 121.855 95.5037 115.32 95.5037H12.7326C6.19762 95.5037 0.895653 90.1711 0.895653 83.5983V32.9009C0.895653 31.6608 2.30129 30.9663 3.2877 31.7352C8.81162 36.0509 16.1357 41.5324 41.2893 59.9114C46.4926 63.7311 55.2717 71.7672 64.0261 71.7176C72.8298 71.792 81.7815 63.5822 86.7876 59.9114C111.941 41.5324 119.241 36.0261 124.764 31.7104ZM64.0261 63.7559C69.7473 63.8551 77.9838 56.5134 82.1268 53.4874C114.851 29.6021 117.342 27.5187 124.888 21.5659C126.318 20.4498 127.157 18.7136 127.157 16.8782V12.1656C127.157 5.59278 121.855 0.260132 115.32 0.260132H12.7326C6.19762 0.260132 0.895653 5.59278 0.895653 12.1656V16.8782C0.895653 18.7136 1.7341 20.425 3.1644 21.5659C10.7105 27.4938 13.2012 29.6021 45.9254 53.4874C50.0683 56.5134 58.3049 63.8551 64.0261 63.7559Z" fill="white"/>
</g>
</svg>
