<svg width="198" height="30" viewBox="0 0 198 30" fill="none" xmlns="http://www.w3.org/2000/svg">
<path fill-rule="evenodd" clip-rule="evenodd" d="M41.1203 28.3702V15.2722L41.1131 8.25092V1.65991C41.1131 1.06852 40.529 0.636549 39.234 0.653691C37.939 0.670833 37.6017 1.12337 37.6017 1.67363C37.5875 2.23117 37.5527 2.78838 37.5179 3.34556L37.5179 3.34558V3.34558V3.34559V3.3456V3.34561V3.34561V3.34562V3.34563V3.34563V3.34564V3.34565V3.34566V3.34566V3.34567V3.34568V3.34569V3.34569V3.3457V3.34571V3.34571V3.34572V3.34573V3.34574V3.34574V3.34575V3.34576V3.34576C37.4727 4.06988 37.4275 4.79393 37.4275 5.51852C37.413 13.1089 37.413 20.6998 37.4275 28.2913C37.4275 28.3317 37.4268 28.3729 37.426 28.4145C37.4202 28.7208 37.4139 29.0521 37.7141 29.289C38.0551 29.5581 38.8822 29.8615 39.4335 29.853C39.9849 29.8444 40.656 29.4896 40.9933 29.2102C41.1911 29.0463 41.1643 28.8174 41.138 28.5934C41.1291 28.5175 41.1203 28.4422 41.1203 28.3702ZM118.422 2.36956V15.2259C118.422 16.3331 118.423 17.4402 118.424 18.5472C118.426 21.8669 118.429 25.1851 118.407 28.5005C118.404 29.1261 118.774 29.6318 120.196 29.6575C121.617 29.6832 122.111 29.1621 122.111 28.5502V28.1216V2.41928C122.111 2.34664 122.121 2.26986 122.131 2.19237C122.16 1.96633 122.19 1.73423 121.977 1.58105C121.563 1.28449 120.732 0.869663 120.225 0.909089C119.561 0.962228 118.933 1.37877 118.472 1.69761C118.313 1.80741 118.351 1.97952 118.389 2.1509C118.405 2.22568 118.422 2.30031 118.422 2.36956ZM31.9609 6.35847C32.2318 6.30974 32.5415 6.23726 32.8509 6.16486C33.5321 6.00548 34.2117 5.84645 34.4712 5.94193C34.8447 6.10516 35.146 6.30177 35.3577 6.52039C35.5694 6.739 35.6873 6.97528 35.7045 7.21556C35.7843 12.5958 35.7843 17.9772 35.7045 23.3597C35.7045 23.7951 35.1821 24.3779 34.482 24.6076C34.1886 24.7048 33.5104 24.5422 32.8332 24.38C32.5308 24.3075 32.2286 24.2351 31.9609 24.1859V6.35847ZM197.715 20.0719C197.621 20.1083 197.525 20.1469 197.428 20.1861C196.671 20.4915 195.826 20.8329 194.932 20.4713C194.247 20.1936 193.808 19.6142 193.79 19.1634C193.688 16.5715 193.688 13.978 193.79 11.3827C193.79 10.9336 194.247 10.3542 194.932 10.0765C195.829 9.71209 196.671 10.0525 197.427 10.3578C197.524 10.3971 197.62 10.4359 197.715 10.4725V20.0719ZM186.854 15.2722V27.9485C186.854 28.6033 186.741 29.1999 184.949 29.1862C183.288 29.1724 182.878 28.6102 182.875 27.952V2.59758C182.875 1.93419 183.295 1.38051 184.946 1.35994C186.596 1.33937 186.868 1.85877 186.865 2.50844C186.854 6.76131 186.854 11.0159 186.854 15.2722ZM132.859 15.3682V28.2125C132.859 28.5399 132.794 28.929 132.427 29.1776C132.222 29.2914 131.961 29.3801 131.667 29.4362C131.374 29.4923 131.056 29.5142 130.741 29.4998C130.164 29.4313 129.58 29.1313 129.29 28.8622C129.102 28.6997 129.13 28.4697 129.158 28.2485C129.168 28.1709 129.177 28.0943 129.177 28.0222V2.50327V2.07645C129.177 1.49191 129.598 1.02223 130.958 1.01023C132.409 0.996515 132.884 1.46106 132.881 2.0953V11.6947L132.859 15.3682ZM154.533 26.3252V15.3647C154.528 11.5399 154.531 7.71438 154.54 3.88834C154.54 3.26781 154.112 2.80155 152.654 2.77584C151.196 2.75013 150.706 3.2301 150.608 3.83349V4.26203V26.2721C150.608 26.3203 150.606 26.3705 150.604 26.4216C150.594 26.697 150.582 26.9993 150.869 27.1771C151.316 27.4514 152.183 27.7617 152.799 27.7291C153.416 27.6965 154.04 27.2971 154.471 26.9989C154.632 26.8867 154.597 26.7125 154.562 26.5391L154.562 26.539C154.548 26.466 154.533 26.3932 154.533 26.3252ZM127.476 15.2722V27.3486C127.476 27.4205 127.486 27.4971 127.496 27.5746L127.496 27.5747C127.526 27.8019 127.557 28.0368 127.338 28.1851C126.91 28.4748 126.166 28.809 125.524 28.833C125.013 28.8502 124.258 28.4713 123.925 28.1851C123.701 27.9916 123.722 27.7285 123.743 27.4742C123.748 27.4019 123.754 27.3302 123.754 27.2611V3.27981C123.754 3.20998 123.751 3.13879 123.748 3.06712C123.723 2.45092 123.696 1.79936 125.532 1.67191C126.848 1.58106 127.487 2.14331 127.487 3.28152L127.476 15.2722ZM111.214 27.3503V15.3613C111.214 14.3889 111.213 13.4166 111.212 12.4443V12.4441V12.4439V12.4437V12.4435V12.4432V12.443V12.4428V12.4426V12.4424V12.4421V12.4419V12.4417V12.4415V12.4413V12.441V12.4408V12.4406V12.4404V12.4402V12.4399V12.4397V12.4395C111.209 9.3309 111.205 6.22307 111.236 3.11524C111.254 2.45356 111.072 1.79703 109.44 1.79189C107.808 1.78675 107.565 2.45699 107.652 3.11009V3.28151V27.2594C107.652 27.3318 107.639 27.4089 107.626 27.4863C107.593 27.6837 107.559 27.8836 107.739 28.0154C108.156 28.3188 108.831 28.7336 109.426 28.7319C110.02 28.7302 110.699 28.3188 111.152 28.0222C111.316 27.9113 111.28 27.7367 111.244 27.5635L111.244 27.5634C111.229 27.4905 111.214 27.4178 111.214 27.3503ZM143.687 15.3081V26.6217C143.687 26.6974 143.703 26.7791 143.72 26.861L143.72 26.8611C143.759 27.0573 143.799 27.255 143.614 27.3759C143.154 27.6811 142.454 28.0616 141.779 28.0908C141.253 28.1182 140.469 27.7222 140.078 27.4308C139.872 27.2777 139.903 27.049 139.933 26.8246L139.933 26.8245C139.944 26.7449 139.954 26.6658 139.954 26.5909V3.98087C139.954 3.89632 139.948 3.80902 139.941 3.72091C139.897 3.12674 139.851 2.49606 141.768 2.4244C143.248 2.36783 143.691 2.76724 143.691 4.01001L143.687 15.3081ZM161.462 5.13451V15.2327C161.462 18.5982 161.466 21.9643 161.476 25.3309C161.48 26.284 162.075 26.704 163.446 26.6474C165.067 26.5789 165.43 26.032 165.43 25.3652V5.16879C165.43 4.49855 165.104 3.9243 163.431 3.90373C161.759 3.88316 161.462 4.44884 161.462 5.13451ZM181.474 15.2413V15.2461C181.474 18.2975 181.474 21.3488 181.445 24.4002C181.477 24.7634 181.272 25.1224 180.858 25.4287C180.657 25.5458 180.391 25.6346 180.091 25.6854C179.79 25.7362 179.466 25.7471 179.153 25.7169C178.84 25.6867 178.551 25.6165 178.317 25.514C178.083 25.4115 177.913 25.2806 177.825 25.1355C177.634 24.8058 177.556 24.4638 177.593 24.1225C177.578 18.2154 177.578 12.3084 177.593 6.4013V5.97447C177.644 5.33166 178.13 4.81055 179.672 4.84655C181.093 4.88083 181.485 5.3848 181.485 5.99847C181.468 9.07828 181.465 12.1592 181.474 15.2413ZM59.1307 15.2713V15.2722L59.1125 16.1275C59.127 19.2371 59.127 22.3466 59.1125 25.4561C59.1089 26.0578 59.4281 26.5874 60.8719 26.5943C62.3156 26.6012 62.6602 26.0475 62.769 25.4749V25.1321C62.7859 18.5988 62.7859 12.0661 62.769 5.53394C62.7766 5.19552 62.6751 4.85854 62.4679 4.53457C61.9782 3.81633 60.5526 3.69291 59.6349 4.3083C59.2872 4.59691 59.1199 4.92621 59.1524 5.25796C59.1307 8.58659 59.1307 11.9341 59.1307 15.2713ZM84.2292 15.2722C84.2292 18.5531 84.2292 21.8323 84.2038 25.1133C84.2148 25.4704 83.9987 25.821 83.5835 26.1195C82.7782 26.6217 81.3598 26.488 80.9209 25.8864C80.6875 25.5367 80.576 25.1713 80.5908 24.8047L80.5908 24.8025V24.8023V24.8021V24.8018V24.8016V24.8014V24.8012V24.8009V24.8007V24.8005V24.8003V24.8V24.7998V24.7996V24.7994V24.7992V24.7989V24.7987C80.5654 21.4906 80.5401 18.1843 80.5908 14.8779C80.6196 12.9153 80.6821 10.9526 80.7446 8.99039C80.7845 7.73577 80.8245 6.48131 80.8556 5.22711C80.8556 4.65628 81.2184 4.12832 82.5424 4.15917C83.7612 4.1866 84.2473 4.67343 84.2437 5.26139C84.2219 7.7547 84.2246 10.2567 84.2274 12.7623V12.7623V12.7624V12.7624V12.7624V12.7625V12.7625V12.7625V12.7626V12.7626V12.7626V12.7627V12.7627V12.7627V12.7628V12.7628V12.7628V12.7629C84.2283 13.599 84.2292 14.4355 84.2292 15.2722ZM192.273 23.1934V15.3184C192.273 14.5868 192.272 13.8555 192.27 13.1243V13.1241V13.1239V13.1237V13.1234V13.1232V13.123V13.1228V13.1226V13.1224V13.1222V13.122V13.1218V13.1216V13.1214V13.1211V13.1209C192.266 11.1722 192.261 9.22403 192.288 7.27038C192.299 6.58128 191.878 6.02589 190.296 6.04475C188.715 6.0636 188.294 6.62071 188.294 7.30638C188.311 12.6146 188.311 17.9223 188.294 23.2294C188.294 23.9082 188.708 24.4293 190.286 24.5116C191.57 24.5784 192.273 24.0864 192.273 23.1934ZM46.5144 15.3339C46.5144 16.2857 46.5123 17.2373 46.5103 18.189C46.5063 20.0929 46.5023 21.9973 46.5144 23.9047C46.5144 24.6007 46.5144 25.3652 44.6426 25.3515C42.8251 25.3382 42.8271 24.5621 42.8287 23.9176L42.8288 23.8602V13.9265V6.8984C42.8288 6.83713 42.8144 6.7713 42.7999 6.70532C42.7673 6.5572 42.7346 6.40835 42.8651 6.30873C42.9733 6.22584 43.0845 6.13316 43.1988 6.03783L43.1988 6.03781C43.6401 5.66984 44.1286 5.26248 44.6789 5.22708C46.021 5.14137 46.4926 5.74134 46.4926 6.34301V15.3339H46.5144ZM102.265 7.38695V15.2722L102.247 23.1574C102.247 23.2233 102.235 23.2929 102.223 23.3627C102.193 23.536 102.163 23.7105 102.316 23.8328C102.678 24.119 103.273 24.5407 103.767 24.5407C104.42 24.5441 105.218 24.251 105.686 23.9819C105.954 23.8289 105.943 23.5484 105.933 23.2957C105.931 23.2483 105.929 23.2018 105.929 23.1574V7.38695C105.928 7.33466 105.931 7.27953 105.935 7.22345L105.935 7.22323C105.948 7.00729 105.962 6.77732 105.744 6.64128C105.283 6.36016 104.51 5.99846 103.948 6.00361C103.386 6.00875 102.747 6.42187 102.334 6.71499C102.172 6.82697 102.205 7.00375 102.238 7.17847C102.251 7.24983 102.265 7.32084 102.265 7.38695ZM53.704 15.363V8.00062C53.704 7.94121 53.6975 7.87841 53.6908 7.81476C53.669 7.60662 53.6463 7.38937 53.8491 7.25153C54.2808 6.95669 54.999 6.55043 55.5649 6.56586C56.1308 6.58129 56.8236 6.99097 57.2372 7.2961C57.4207 7.43312 57.3916 7.63744 57.3631 7.83808V7.83809V7.83811V7.83813V7.83815C57.3527 7.91107 57.3424 7.98351 57.3424 8.05205V22.5197L57.3424 22.5611C57.3432 23.221 57.3442 23.9926 55.5286 24.011C53.675 24.0299 53.6678 23.2465 53.6714 22.5625C53.7137 20.692 53.7099 18.8267 53.7062 16.9618V16.9616V16.9615V16.9614V16.9613V16.9612V16.9612V16.9611V16.961V16.9609V16.9608V16.9607V16.9606V16.9605V16.9604C53.7051 16.428 53.704 15.8955 53.704 15.363ZM89.6377 22.386V15.3579C89.6377 13.0152 89.6462 10.6725 89.6631 8.32977C89.664 8.29481 89.6652 8.2597 89.6664 8.2245L89.6665 8.22353C89.6891 7.56177 89.7128 6.87317 87.8675 6.72187C86.6741 6.62416 86.0211 7.2207 86.0211 8.30234C86.0066 13.0163 86.0066 17.7292 86.0211 22.4409L86.0211 22.4775C86.0205 22.7474 86.0197 23.0602 86.3077 23.2585C86.6704 23.5088 87.3343 23.7779 87.9183 23.8036C88.3645 23.8259 89.0138 23.5414 89.3257 23.2894C89.6377 23.0374 89.6377 22.6911 89.6377 22.386ZM116.688 15.363C116.688 15.9916 116.685 16.6201 116.682 17.2486V17.2499C116.676 18.5065 116.671 19.7632 116.688 21.0198C116.688 21.666 116.347 22.2437 114.874 22.2574C113.401 22.2712 112.991 21.702 112.995 21.0575C113.017 17.2063 113.017 13.3552 112.995 9.50397C112.995 8.8543 113.39 8.28862 114.892 8.30405C116.394 8.31947 116.706 8.90743 116.706 9.55025C116.674 10.963 116.679 12.3786 116.684 13.7955L116.684 13.8014C116.686 14.3218 116.688 14.8423 116.688 15.363ZM134.571 9.53826V15.2722C134.571 15.7071 134.57 16.1418 134.569 16.5764C134.566 18.1408 134.563 19.7031 134.6 21.2632C134.611 22.026 135.435 22.3963 136.755 22.2917C138.184 22.1803 138.286 21.6729 138.286 21.1278V9.49026C138.289 8.84402 138.199 8.22177 136.385 8.24234C134.571 8.26291 134.571 8.91087 134.571 9.53826ZM172.285 13.4435V13.4433C172.292 12.2832 172.298 11.1228 172.279 9.96167C172.279 9.33085 172.707 8.83545 174.067 8.79603C175.562 8.75146 176.153 9.27771 176.153 9.92396C176.167 13.4917 176.167 17.0589 176.153 20.6256C176.153 21.2358 175.62 21.7501 174.234 21.7518C172.754 21.7518 172.268 21.2375 172.282 20.5776C172.297 19.4094 172.291 18.2434 172.285 17.0753C172.282 16.4454 172.279 15.8148 172.279 15.183C172.279 14.6037 172.282 14.0244 172.285 13.445V13.4448V13.4446V13.4444V13.4442V13.4441V13.4439V13.4437V13.4435ZM69.9958 13.5812C69.9936 14.1477 69.9914 14.7147 69.9914 15.2824L70.0059 16.059C70.0059 16.5213 70.0031 16.9838 70.0004 17.4463V17.4465V17.4467V17.4468V17.447V17.4471V17.4473V17.4475V17.4476V17.4477V17.4477V17.4478V17.4478V17.4479V17.448V17.448V17.4481C69.9923 18.8369 69.9841 20.2262 70.0494 21.6146C70.127 21.956 70.4633 22.2726 70.9962 22.506C71.2791 22.6345 72.3129 22.602 72.5596 22.4631C73.0304 22.1899 73.3003 21.8518 73.3286 21.4998C73.3571 19.1823 73.3593 16.8643 73.3616 14.5463C73.3633 12.7323 73.3651 10.9182 73.3794 9.10456C73.383 8.48231 72.9332 7.92863 71.6564 7.9372C70.3795 7.94577 69.9732 8.50802 69.9732 9.12684C70.0073 10.6121 70.0016 12.0947 69.9958 13.5804V13.5805V13.5806V13.5807V13.5808V13.5809V13.581V13.5811V13.5812ZM170.799 15.2824V19.6519C170.799 19.7169 170.812 19.7882 170.826 19.8601C170.86 20.0402 170.895 20.2236 170.719 20.3204L170.619 20.378C170.039 20.7115 169.338 21.1147 168.604 21.1552C167.516 21.2169 166.867 20.7832 166.874 20.1884C166.9 16.9041 166.9 13.6197 166.874 10.3353C166.874 9.73537 167.563 9.33083 168.651 9.38225C169.377 9.41825 170.135 9.83822 170.672 10.1605C170.877 10.2879 170.847 10.4997 170.818 10.7049C170.809 10.7757 170.799 10.8458 170.799 10.9113C170.804 12.3683 170.804 13.8254 170.799 15.2824ZM95.0845 16.7851V16.7848V16.7844V16.784V16.7836V16.7832V16.7828C95.0817 16.289 95.0789 15.7952 95.0789 15.3013L95.0898 13.0763C95.0898 12.825 95.1036 12.5725 95.1174 12.32C95.1522 11.6854 95.187 11.05 95.0027 10.4296C94.9257 10.1702 94.4318 9.94447 93.9359 9.71787C93.7078 9.6136 93.4792 9.50914 93.2906 9.4011C93.1345 9.48576 92.9766 9.56975 92.8186 9.65376L92.8185 9.65379L92.8185 9.65383L92.8184 9.65386L92.8183 9.6539L92.8183 9.65393L92.8182 9.65396C92.3558 9.89987 91.8931 10.1459 91.4768 10.409C91.3768 10.4728 91.4026 10.5806 91.4283 10.688C91.4399 10.7364 91.4514 10.7848 91.4514 10.829C91.4514 11.8182 91.4482 12.8071 91.445 13.796C91.4385 15.7736 91.4321 17.7509 91.4514 19.729C91.4332 20.072 91.5874 20.4121 91.9012 20.7215C92.5614 21.2992 93.9689 21.3061 94.64 20.7352C94.946 20.4302 95.0963 20.0956 95.0789 19.7582C95.0958 18.7649 95.0902 17.7748 95.0845 16.7851ZM100.52 15.2602V19.1908C100.52 19.825 100.157 20.4027 98.6338 20.3907C97.2517 20.3753 96.8636 19.8216 96.8636 19.2217V11.3622C96.8636 10.7279 97.2518 10.1537 98.7572 10.1622C100.154 10.1759 100.524 10.7313 100.516 11.333C100.502 12.1827 100.508 13.0331 100.514 13.8837V13.884V13.8842V13.8844V13.8846V13.8848C100.517 14.3432 100.52 14.8017 100.52 15.2602ZM159.978 18.5668V15.3099C159.976 14.1979 159.974 13.0872 159.974 11.9775C159.978 11.3553 159.445 10.8702 158.066 10.8513C156.575 10.8307 156.017 11.3227 156.017 11.9895C156.031 14.1848 156.031 16.3812 156.017 18.5788C156.013 19.2079 156.543 19.6862 157.918 19.7033C159.405 19.7239 159.978 19.2268 159.978 18.5668ZM64.5574 15.255C64.5574 14.944 64.5615 14.6331 64.5656 14.3221C64.5754 13.5806 64.5853 12.839 64.5392 12.0975C64.4993 11.5095 65.0906 11.0776 66.1752 11.069C67.3614 11.0587 67.9418 11.4907 67.9527 12.1146C67.9693 13.1829 68.0285 14.2518 68.0877 15.3209L68.0877 15.321C68.1321 16.1235 68.1765 16.926 68.203 17.7286C68.203 18.0886 68.203 18.5017 67.862 18.7965C67.6255 19.001 67.1637 19.1495 66.7021 19.2979C66.4982 19.3634 66.2944 19.429 66.11 19.4993C65.9479 19.4039 65.7468 19.3098 65.5455 19.2157C65.1068 19.0105 64.6672 18.8049 64.6299 18.584C64.4976 17.7941 64.5193 16.999 64.5411 16.2036L64.5411 16.2034C64.5498 15.8872 64.5584 15.571 64.5574 15.255ZM75.4289 12.6872V15.2464C75.4289 15.5026 75.4299 15.7587 75.4309 16.0148C75.4332 16.6122 75.4355 17.2094 75.4253 17.8057C75.4108 18.3817 75.8461 18.9268 77.1339 18.8239C77.794 18.7708 78.6973 18.1794 78.7336 17.8143C78.9077 16.1121 78.9077 14.3996 78.7336 12.6975C78.6973 12.3426 77.7469 11.7735 77.0649 11.7187C75.9259 11.6278 75.4289 12.1438 75.4289 12.6872ZM51.9121 15.3339C51.9121 15.5528 51.9153 15.7717 51.9185 15.9905C51.9249 16.428 51.9314 16.8653 51.9121 17.3018C51.8794 17.8829 51.3063 18.3474 50.0113 18.3303C48.836 18.3097 48.281 17.864 48.2773 17.3138C48.2773 16.8566 48.2745 16.3995 48.2717 15.9424C48.266 15.0282 48.2604 14.114 48.2773 13.1997C48.2773 12.6512 48.8867 12.2227 50.0911 12.2192C51.2954 12.2158 51.8722 12.6495 51.9048 13.1929C51.942 13.6764 51.9317 14.1656 51.9215 14.6543V14.6543C51.9168 14.8811 51.9121 15.1079 51.9121 15.3339ZM149.133 15.7399C149.114 15.5684 149.096 15.3968 149.096 15.2276C149.096 15.064 149.116 14.8977 149.136 14.7315C149.183 14.3473 149.229 13.9634 149.027 13.6128C148.82 13.2631 147.942 12.7849 147.3 12.7746C146.658 12.7643 145.468 13.2306 145.41 13.5254C145.189 14.6887 145.189 15.859 145.41 17.0223C145.483 17.3172 146.665 17.7834 147.296 17.7714C147.928 17.7594 148.827 17.2726 149.016 16.9298C149.222 16.5535 149.178 16.1467 149.133 15.7399Z" fill="white"/>
<path d="M16.8974 13.395L3.2163 5.27087C2.10471 4.61111 0.402344 5.25135 0.402344 6.88321V23.1275C0.402344 24.5915 1.98422 25.4738 3.2163 24.7399L16.8974 16.6197C18.1178 15.8974 18.1217 14.1172 16.8974 13.395Z" fill="white"/>
</svg>
