<svg width="50" height="50" viewBox="0 0 50 50" fill="none" xmlns="http://www.w3.org/2000/svg">
<path d="M25.1821 49.5044C38.7635 49.5044 49.7734 38.4945 49.7734 24.9131C49.7734 11.3316 38.7635 0.321747 25.1821 0.321747C11.6007 0.321747 0.59082 11.3316 0.59082 24.9131C0.59082 38.4945 11.6007 49.5044 25.1821 49.5044Z" fill="#13AA52"/>
<path d="M31.7551 21.9083C30.2018 15.053 26.5309 12.799 26.1356 11.9378C25.7034 11.3302 25.2653 10.2495 25.2653 10.2495C25.2581 10.2313 25.2466 10.1991 25.2331 10.1679C25.1885 10.7755 25.1654 11.0098 24.591 11.6227C23.7015 12.3182 19.1377 16.1476 18.7664 23.9361C18.4201 31.2002 24.0137 35.5286 24.7701 36.0805L24.8561 36.1415V36.1362C24.8609 36.1727 25.0963 37.8653 25.2615 39.6587H25.8542C25.9932 38.391 26.2017 37.1318 26.4786 35.8869L26.5266 35.8557C26.865 35.6131 27.1876 35.3492 27.4925 35.0656L27.5271 35.0344C29.1351 33.5488 32.026 30.1128 31.9977 24.6345C31.9917 23.7206 31.9106 22.8088 31.7551 21.9083ZM25.1986 31.9792C25.1986 31.9792 25.1986 21.7911 25.5348 21.793C25.797 21.793 26.1366 34.9345 26.1366 34.9345C25.6697 34.8783 25.1986 32.7717 25.1986 31.9792Z" fill="white"/>
</svg>
