<svg width="50" height="51" viewBox="0 0 50 51" fill="none" xmlns="http://www.w3.org/2000/svg">
<path fill-rule="evenodd" clip-rule="evenodd" d="M11.9059 8.91106C11.3464 8.9003 10.9506 8.97399 10.5324 9.0692V9.14801H10.6089C10.8762 9.71685 11.3475 10.0832 11.6772 10.5732C11.9308 11.1275 12.1851 11.681 12.4394 12.2346C12.4653 12.2082 12.491 12.1821 12.5159 12.1558C12.989 11.8107 13.2047 11.2582 13.2026 10.4148C13.0129 10.2077 12.9846 9.94896 12.8208 9.70233C12.6035 9.37339 12.1809 9.18754 11.9059 8.91106ZM48.8271 49.5115C49.1872 49.7855 49.4286 50.2105 49.8955 50.3826V50.3033C49.6497 49.98 49.5873 49.5338 49.3617 49.1949C49.0319 48.8528 48.6996 48.5093 48.3698 48.1659C47.3997 46.8305 46.1696 45.6584 44.8609 44.6842C43.8185 43.9067 41.4821 42.8577 41.0466 41.5982C41.0217 41.5713 40.9958 41.5447 40.9699 41.5178C41.7095 41.4317 42.5762 41.1542 43.2588 40.964C44.4057 40.645 45.431 40.7279 46.6147 40.4102C47.1496 40.2513 47.6831 40.0926 48.2169 39.9358V39.6182C47.6183 38.9807 47.1915 38.1373 46.5393 37.5604C44.8303 36.0521 42.9666 34.5437 41.0463 33.2872C39.9824 32.5895 38.6657 32.1368 37.5372 31.5457C37.1576 31.3472 36.4914 31.2436 36.2402 30.9125C35.6483 30.1283 35.325 29.1345 34.8677 28.2214C33.9106 26.3083 32.9692 24.219 32.1207 22.2061C31.5429 20.8339 31.1646 19.4805 30.4431 18.249C26.9793 12.3408 23.25 8.77443 17.4748 5.26911C16.2449 4.52383 14.7656 4.22959 13.2026 3.84498C12.364 3.79254 11.5238 3.73901 10.6851 3.68657C10.1731 3.46468 9.64058 2.81488 9.15968 2.49939C7.24591 1.24551 2.33758 -1.48252 0.92105 2.10402C0.0261281 4.3673 2.25773 6.57597 3.05647 7.72334C3.61722 8.52779 4.33404 9.43014 4.73536 10.3346C4.9985 10.9293 5.04335 11.5261 5.27019 12.1552C5.82446 13.7055 6.30614 15.3918 7.02322 16.8248C7.38642 17.5494 7.78644 18.3135 8.24479 18.9614C8.52608 19.3592 9.00672 19.5343 9.08216 20.1486C8.61215 20.8326 8.58519 21.8939 8.32101 22.7602C7.12847 26.6606 7.57827 31.5078 9.31289 34.3947C9.84435 35.2804 11.0981 37.1817 12.8208 36.452C14.3278 35.8151 13.9918 33.841 14.4229 32.0995C14.5199 31.7038 14.4608 31.4136 14.6516 31.1498V31.2286C15.1099 32.1783 15.5678 33.1279 16.0251 34.0774C17.0418 35.7753 18.8454 37.5509 20.3739 38.7475C21.1654 39.3683 21.7894 40.442 22.8148 40.8053V40.7249H22.7383C22.5387 40.4051 22.2281 40.2709 21.9761 40.0135C21.3788 39.4059 20.7149 38.6513 20.2207 37.9555C18.8301 35.9977 17.6021 33.8547 16.4832 31.6245C15.9483 30.5591 15.4838 29.3841 15.0329 28.3004C14.8595 27.8822 14.8616 27.2504 14.4991 27.0339C14.0055 27.8279 13.2789 28.4707 12.897 29.4083C12.2867 30.9074 12.2082 32.7355 11.9818 34.6314C11.8481 34.6814 11.9074 34.6473 11.8286 34.7102C10.7657 34.445 10.3927 33.31 9.99808 32.3364C8.99972 29.8749 8.81436 25.9108 9.69295 23.0768C9.92031 22.3438 10.949 20.0343 10.5316 19.3571C10.333 18.6809 9.67869 18.2907 9.31237 17.774C8.85714 17.1355 8.40449 16.2955 8.08976 15.5578C7.27365 13.6385 6.89204 11.4839 6.0316 9.54337C5.61991 8.61628 4.92435 7.67708 4.35297 6.85219C3.72041 5.93881 3.01188 5.26642 2.52216 4.16101C2.34769 3.7686 2.11048 3.14058 2.36921 2.73688C2.45087 2.46443 2.56753 2.35093 2.82756 2.2619C3.27061 1.90795 4.50178 2.3797 4.96298 2.57846C6.18559 3.10535 7.20754 3.60749 8.24376 4.31942C8.74073 4.66154 9.24393 5.32371 9.84461 5.50687H10.5314C11.6062 5.76265 12.8094 5.58675 13.8119 5.90277C15.5854 6.46193 17.1746 7.33174 18.6178 8.27739C23.0144 11.1571 26.6096 15.2576 29.0689 20.1486C29.4645 20.9361 29.6361 21.6876 29.984 22.5232C30.6868 24.2077 31.5732 25.9406 32.2726 27.5882C32.9703 29.231 33.6505 30.8897 34.637 32.2576C35.1555 32.9763 37.1594 33.3619 38.0707 33.7616C38.709 34.0411 39.7545 34.3331 40.3583 34.7102C41.514 35.4335 42.6322 36.2936 43.7153 37.0854C44.2566 37.4816 45.9212 38.3492 46.0032 39.063C43.3207 38.9893 41.2714 39.2478 39.5194 40.0138C39.0214 40.2308 38.2278 40.2373 38.1459 40.8836C38.4196 41.1811 38.4629 41.6265 38.6807 41.992C39.0978 42.6945 39.804 43.635 40.4348 44.1294C41.1236 44.6686 41.8332 45.2455 42.5705 45.7122C43.8835 46.5433 45.3499 47.0174 46.6134 47.8493C47.3611 48.3404 48.1007 48.9577 48.8271 49.5115Z" fill="white"/>
</svg>
