<svg width="50" height="51" viewBox="0 0 50 51" fill="none" xmlns="http://www.w3.org/2000/svg">
<path d="M23.6936 0.848021C23.5879 0.857635 23.2513 0.891283 22.9484 0.915318C15.9629 1.54503 9.41961 5.3137 5.27538 11.1061C2.96769 14.3268 1.49174 17.9801 0.934044 21.8497C0.736929 23.2005 0.712891 23.5994 0.712891 25.4309C0.712891 27.2624 0.736929 27.6613 0.934044 29.0121C2.27058 38.2463 8.84268 46.0048 17.7561 48.8793C19.3523 49.3937 21.035 49.7446 22.9484 49.9561C23.6936 50.0378 26.9148 50.0378 27.66 49.9561C30.9628 49.5908 33.7609 48.7736 36.5205 47.3651C36.9436 47.1488 37.0253 47.0911 36.9676 47.0431C36.9292 47.0142 35.1263 44.5963 32.9628 41.6737L29.0301 36.362L24.1023 29.0698C21.3907 25.0608 19.16 21.7824 19.1407 21.7824C19.1215 21.7776 19.1023 25.0175 19.0927 28.9736C19.0782 35.9005 19.0734 36.1793 18.9869 36.3427C18.8619 36.5783 18.7657 36.6744 18.5638 36.7802C18.41 36.8571 18.2754 36.8715 17.5494 36.8715H16.7177L16.4965 36.7321C16.3523 36.6408 16.2465 36.5206 16.1744 36.3812L16.0734 36.1649L16.0831 26.5269L16.0975 16.8841L16.2465 16.6966C16.3234 16.5957 16.4869 16.4659 16.6023 16.4034C16.7994 16.3073 16.8763 16.2976 17.7081 16.2976C18.6888 16.2976 18.8523 16.3361 19.1071 16.6149C19.1792 16.6918 21.8475 20.7105 25.0398 25.5511C28.2321 30.3917 32.5975 37.0013 34.7417 40.246L38.6359 46.1442L38.833 46.0144C40.5782 44.8799 42.4244 43.2648 43.8859 41.5824C46.9965 38.0108 49.0013 33.6556 49.6743 29.0121C49.8715 27.6613 49.8955 27.2624 49.8955 25.4309C49.8955 23.5994 49.8715 23.2005 49.6743 21.8497C48.3378 12.6155 41.7657 4.85704 32.8523 1.98247C31.2801 1.47293 29.6071 1.12202 27.7321 0.910511C27.2705 0.862442 24.0927 0.809565 23.6936 0.848021ZM33.7609 15.7208C33.9917 15.8362 34.1792 16.0573 34.2465 16.288C34.285 16.413 34.2946 19.0857 34.285 25.1088L34.2705 33.7518L32.7465 31.4156L31.2176 29.0794V22.7967C31.2176 18.7348 31.2369 16.4515 31.2657 16.3409C31.3426 16.0717 31.5109 15.8602 31.7417 15.7352C31.9388 15.6343 32.0109 15.6247 32.7657 15.6247C33.4773 15.6247 33.6023 15.6343 33.7609 15.7208Z" fill="black"/>
</svg>
