<svg width="51" height="55" viewBox="0 0 51 55" fill="none" xmlns="http://www.w3.org/2000/svg">
<path d="M23.3283 0.778224C24.6722 0.00900292 26.4226 0.00552842 27.7653 0.778224C34.5203 4.59518 41.2775 8.40616 48.0314 12.2254C49.3017 12.941 50.1515 14.3547 50.1385 15.8185V38.7828C50.148 40.3071 49.2143 41.7547 47.8741 42.454C41.1412 46.2499 34.4118 50.0505 27.6801 53.8464C26.3085 54.6307 24.523 54.5702 23.1942 53.7217C21.1756 52.5515 19.1537 51.3872 17.135 50.2182C16.7225 49.9723 16.2575 49.7766 15.9662 49.3766C16.2237 49.0295 16.684 48.9863 17.0581 48.8348C17.9007 48.5668 18.6746 48.1368 19.4486 47.7194C19.6443 47.5855 19.8833 47.6368 20.0709 47.7567C21.797 48.7464 23.5078 49.7648 25.2397 50.745C25.6091 50.9583 25.9832 50.6751 26.299 50.4991C32.906 46.7649 39.5211 43.0449 46.127 39.3096C46.3717 39.1918 46.5071 38.932 46.4872 38.6639C46.4918 31.0884 46.4883 23.5117 46.4895 15.9362C46.5175 15.632 46.3414 15.3523 46.0664 15.2278C39.3569 11.4493 32.6508 7.66493 25.9425 3.88542C25.8263 3.80551 25.6886 3.76264 25.5476 3.76243C25.4065 3.76222 25.2687 3.80469 25.1522 3.88426C18.4439 7.66493 11.739 11.4527 5.03068 15.2311C4.75658 15.3558 4.57262 15.6309 4.60524 15.9362C4.6064 23.5117 4.60524 31.0884 4.60524 38.665C4.59361 38.7958 4.62234 38.9271 4.68757 39.0411C4.7528 39.1551 4.85139 39.2463 4.97007 39.3026C6.76022 40.3177 8.55269 41.3257 10.344 42.3374C11.3532 42.8806 12.5922 43.2033 13.7041 42.7872C14.6852 42.4353 15.373 41.434 15.3543 40.3923C15.3635 32.861 15.3496 25.3286 15.3612 17.7986C15.3367 17.4642 15.6539 17.188 15.9789 17.2195C16.8391 17.2137 17.7003 17.2079 18.5605 17.2218C18.9195 17.2137 19.1666 17.5737 19.1222 17.9105C19.1187 25.4894 19.1315 33.0685 19.1164 40.6474C19.1187 42.6673 18.2889 44.8651 16.4206 45.8534C14.1189 47.0458 11.274 46.7929 9.00013 45.6496C7.03162 44.6671 5.15306 43.5076 3.21949 42.455C1.87581 41.7595 0.946762 40.3062 0.956221 38.783V15.8185C0.94213 14.3244 1.82562 12.885 3.13552 12.1799C9.86722 8.38087 16.5978 4.57897 23.3283 0.778224Z" fill="#8CC84B"/>
<path d="M29.2014 16.6858C32.1374 16.4968 35.2805 16.5738 37.9225 18.0202C39.968 19.1285 41.1021 21.4547 41.1382 23.7273C41.081 24.0338 40.7606 24.2029 40.468 24.1818C39.6161 24.1807 38.7641 24.1934 37.9123 24.1761C37.5509 24.19 37.3409 23.8568 37.2955 23.5373C37.0508 22.45 36.4578 21.3731 35.4344 20.8486C33.8633 20.062 32.0417 20.1016 30.3285 20.118C29.0779 20.1844 27.7331 20.2927 26.6735 21.0281C25.8601 21.5852 25.613 22.7098 25.9033 23.6155C26.1771 24.2658 26.9278 24.4756 27.542 24.6691C31.0802 25.5944 34.8296 25.5024 38.3003 26.7202C39.7372 27.2167 41.1428 28.1818 41.6346 29.6863C42.278 31.7027 41.996 34.1128 40.5614 35.7316C39.398 37.0637 37.7036 37.7887 36.0136 38.1825C33.7654 38.6837 31.4323 38.6965 29.1491 38.4739C27.0023 38.2292 24.7681 37.6651 23.1108 36.2024C21.6936 34.9718 21.0014 33.0544 21.0701 31.2039C21.0865 30.8914 21.3977 30.6734 21.697 30.6991C22.5549 30.6921 23.4127 30.6898 24.2705 30.7003C24.6131 30.6757 24.8672 30.9718 24.8847 31.2948C25.043 32.3308 25.4324 33.4181 26.3357 34.0323C28.0792 35.1571 30.2668 35.0801 32.2631 35.1115C33.917 35.0382 35.7735 35.016 37.1232 33.9229C37.8353 33.2994 38.0462 32.2563 37.8538 31.3589C37.6453 30.6012 36.8527 30.2482 36.1721 30.0173C32.6792 28.9124 28.888 29.3133 25.4289 28.0639C24.0246 27.5676 22.6666 26.6293 22.1271 25.1866C21.3743 23.1447 21.7192 20.6191 23.3042 19.055C24.8496 17.4992 27.0804 16.9002 29.2014 16.6858Z" fill="#8CC84B"/>
</svg>
