<svg width="51" height="27" viewBox="0 0 51 27" fill="none" xmlns="http://www.w3.org/2000/svg">
<path d="M25.5474 26.0419C39.1288 26.0419 50.1387 20.2531 50.1387 13.1123C50.1387 5.97141 39.1288 0.182608 25.5474 0.182608C11.966 0.182608 0.956055 5.97141 0.956055 13.1123C0.956055 20.2531 11.966 26.0419 25.5474 26.0419Z" fill="url(#paint0_radial_563_5154)"/>
<path d="M25.5477 25.0813C38.5986 25.0813 49.1784 19.7226 49.1784 13.1123C49.1784 6.50193 38.5986 1.14321 25.5477 1.14321C12.4968 1.14321 1.91699 6.50193 1.91699 13.1123C1.91699 19.7226 12.4968 25.0813 25.5477 25.0813Z" fill="#6181B6"/>
<path d="M30.3312 16.9931L31.5031 10.9605C31.7721 9.59647 31.5416 8.57823 30.8499 7.94424C30.1775 7.32946 29.0248 7.02207 27.3341 7.02207H25.2977L25.874 4.025C25.8932 3.90973 25.874 3.79446 25.7972 3.6984C25.7203 3.60234 25.6243 3.56391 25.509 3.56391H22.7041C22.5119 3.56391 22.3582 3.6984 22.3198 3.8713L21.071 10.2689C20.9558 9.53883 20.6868 8.92405 20.2257 8.42454C19.3996 7.48315 18.1124 7.00285 16.3641 7.00285H10.9656C10.7734 7.00285 10.6197 7.13734 10.5813 7.31024L8.06455 20.2975C8.04533 20.4128 8.06455 20.5281 8.14139 20.6241C8.21824 20.7202 8.3143 20.7586 8.42957 20.7586H11.2537C11.4459 20.7586 11.5995 20.6241 11.638 20.4512L12.2528 17.3197H14.3469C15.4419 17.3197 16.3833 17.2044 17.0942 16.9739C17.8434 16.7241 18.5159 16.3207 19.1114 15.7635C19.5917 15.3216 19.9952 14.8221 20.3026 14.2842L19.8031 16.8778C19.7838 16.9931 19.8031 17.1083 19.8799 17.2044C19.9567 17.3005 20.0528 17.3389 20.1681 17.3389H22.973C23.1651 17.3389 23.3188 17.2044 23.3573 17.0315L24.7405 9.92307H26.6617C27.4878 9.92307 27.7184 10.0768 27.7952 10.1536C27.8529 10.2113 27.9681 10.4418 27.8336 11.1526L26.7194 16.897C26.7001 17.0123 26.7194 17.1276 26.7962 17.2236C26.8731 17.3197 26.9691 17.3581 27.0844 17.3581H29.9662C30.1391 17.3005 30.2928 17.166 30.3312 16.9931ZM17.3439 11.998C17.171 12.9009 16.8444 13.5541 16.3641 13.9192C15.8838 14.2842 15.0961 14.4763 14.0587 14.4763H12.8099L13.7129 9.82701H15.3267C16.5178 9.82701 16.9981 10.0768 17.1902 10.2881C17.44 10.5955 17.4976 11.1911 17.3439 11.998Z" fill="white"/>
<path d="M42.3198 8.42453C41.4937 7.48315 40.2065 7.00285 38.4582 7.00285H33.0212C32.8291 7.00285 32.6754 7.13733 32.637 7.31024L30.1202 20.2783C30.101 20.3936 30.1202 20.5089 30.1971 20.6049C30.2739 20.701 30.37 20.7394 30.4852 20.7394H33.3094C33.5015 20.7394 33.6552 20.6049 33.6936 20.432L34.3084 17.3005H36.4025C37.4976 17.3005 38.439 17.1852 39.1498 16.9546C39.8991 16.7049 40.5715 16.3014 41.1671 15.7443C41.6666 15.2832 42.0893 14.7645 42.3967 14.2073C42.704 13.6502 42.9346 13.0354 43.0691 12.363C43.3957 10.6915 43.1459 9.38513 42.3198 8.42453ZM39.3804 11.998C39.2075 12.9009 38.8809 13.5541 38.4006 13.9192C37.9203 14.2842 37.1326 14.4763 36.0951 14.4763H34.8464L35.7493 9.82701H37.3631C38.5543 9.82701 39.0346 10.0768 39.2267 10.2881C39.4956 10.5955 39.5533 11.1911 39.3804 11.998Z" fill="white"/>
<path d="M15.3261 9.44277C16.402 9.44277 17.1128 9.63489 17.4779 10.0383C17.8429 10.4418 17.9197 11.1142 17.7276 12.0748C17.5355 13.0738 17.1513 13.8039 16.5941 14.2265C16.037 14.6492 15.1916 14.8605 14.0581 14.8605H12.3483L13.4049 9.44277H15.3261ZM8.44824 20.3552H11.2724L11.9448 16.9162H14.3655C15.4414 16.9162 16.3059 16.8009 16.9976 16.5704C17.6892 16.3399 18.304 15.9748 18.8803 15.4369C19.3606 14.995 19.7449 14.5147 20.0331 13.996C20.3212 13.4773 20.5326 12.9009 20.6478 12.2669C20.9552 10.73 20.7247 9.53883 19.9754 8.67429C19.2261 7.80975 18.035 7.38709 16.402 7.38709H10.965L8.44824 20.3552Z" fill="#000004"/>
<path d="M22.7228 3.94815H25.5278L24.8553 7.38709H27.3529C28.9283 7.38709 30.0042 7.65606 30.5997 8.2132C31.1953 8.77035 31.3682 9.6541 31.1377 10.8837L29.9657 16.9162H27.1224L28.2367 11.1718C28.3711 10.5186 28.3135 10.0768 28.1022 9.84622C27.8908 9.61568 27.4105 9.48119 26.6997 9.48119H24.4519L23.011 16.9162H20.2061L22.7228 3.94815Z" fill="#000004"/>
<path d="M37.3623 9.44277C38.4381 9.44277 39.149 9.63489 39.514 10.0383C39.879 10.4418 39.9559 11.1142 39.7638 12.0748C39.5716 13.0738 39.1874 13.8039 38.6302 14.2265C38.0731 14.6492 37.2278 14.8605 36.0943 14.8605H34.3844L35.4411 9.44277H37.3623ZM30.4844 20.3552H33.3085L33.981 16.9162H36.4017C37.4775 16.9162 38.3421 16.8009 39.0337 16.5704C39.7253 16.3399 40.3401 15.9748 40.9165 15.4369C41.3968 14.995 41.781 14.5147 42.0692 13.996C42.3574 13.4773 42.5687 12.9009 42.684 12.2669C42.9914 10.73 42.7608 9.53883 42.0115 8.67429C41.2623 7.80975 40.0711 7.38709 38.4381 7.38709H33.0011L30.4844 20.3552Z" fill="#000004"/>
<defs>
<radialGradient id="paint0_radial_563_5154" cx="0" cy="0" r="1" gradientUnits="userSpaceOnUse" gradientTransform="translate(15.7208 4.72964) scale(32.2944 32.2944)">
<stop stop-color="white"/>
<stop offset="0.5" stop-color="#4C6B97"/>
<stop offset="1" stop-color="#231F20"/>
</radialGradient>
</defs>
</svg>
