<svg width="54" height="48" viewBox="0 0 54 48" fill="none" xmlns="http://www.w3.org/2000/svg">
<path id="Vector" d="M48.7918 0.232178H4.88547C2.24152 0.232178 0.0282593 2.42492 0.0282593 5.04437V21.0692C0.0282593 35.8495 11.956 47.6429 26.8506 47.6429C41.6855 47.6429 53.6251 35.8495 53.6251 21.0692V5.04437C53.6251 2.38937 51.5076 0.232178 48.7918 0.232178ZM29.4108 32.0566C27.9273 33.4552 25.6543 33.3723 24.3383 32.0566C10.7357 19.1491 10.5921 19.5995 10.5921 17.4541C10.5921 15.451 12.2431 13.8153 14.2649 13.8153C16.2987 13.8153 16.1911 14.2657 26.8506 24.3998C37.6896 14.0998 37.4504 13.8153 39.4722 13.8153C41.494 13.8153 43.145 15.451 43.145 17.4541C43.145 19.5639 42.7981 19.315 29.4108 32.0566Z" fill="#EE4056"/>
</svg>
