<svg width="52" height="53" viewBox="0 0 52 53" fill="none" xmlns="http://www.w3.org/2000/svg">
<path d="M26.1821 35.459C39.7635 35.459 50.7734 31.2553 50.7734 26.0696C50.7734 20.884 39.7635 16.6802 26.1821 16.6802C12.6007 16.6802 1.59082 20.884 1.59082 26.0696C1.59082 31.2553 12.6007 35.459 26.1821 35.459Z" stroke="#61DAFB" stroke-width="2"/>
<path d="M18.0503 30.7644C24.841 42.5262 33.9865 49.9592 38.4774 47.3664C42.9683 44.7735 41.1039 33.1368 34.3132 21.375C27.5225 9.61312 18.377 2.18015 13.8861 4.77297C9.39523 7.36578 11.2596 19.0025 18.0503 30.7644Z" stroke="#61DAFB" stroke-width="2"/>
<path d="M18.0508 21.375C11.2601 33.1368 9.39572 44.7736 13.8866 47.3664C18.3775 49.9592 27.523 42.5262 34.3137 30.7644C41.1044 19.0026 42.9688 7.36581 38.4779 4.77299C33.987 2.18018 24.8415 9.61314 18.0508 21.375Z" stroke="#61DAFB" stroke-width="2"/>
<path d="M26.1825 30.6526C28.7136 30.6526 30.7655 28.6008 30.7655 26.0697C30.7655 23.5386 28.7136 21.4868 26.1825 21.4868C23.6515 21.4868 21.5996 23.5386 21.5996 26.0697C21.5996 28.6008 23.6515 30.6526 26.1825 30.6526Z" fill="#61DAFB"/>
</svg>
