<svg width="50" height="50" viewBox="0 0 50 50" fill="none" xmlns="http://www.w3.org/2000/svg">
<mask id="mask0_800_1315" style="mask-type:luminance" maskUnits="userSpaceOnUse" x="0" y="0" width="50" height="50">
<path d="M49.1826 49.7217V0.539131H0V49.7217H49.1826Z" fill="white"/>
</mask>
<g mask="url(#mask0_800_1315)">
<path d="M49.1826 25.1304C49.1826 11.5489 38.1728 0.539131 24.5913 0.539131C11.0098 0.539131 0 11.5489 0 25.1304C0 38.7119 11.0098 49.7217 24.5913 49.7217C38.1728 49.7217 49.1826 38.7119 49.1826 25.1304Z" fill="#0011FF"/>
</g>
<path d="M29.0949 23.937L35.2771 13.7583C35.2965 13.7265 35.3059 13.6896 35.3043 13.6523C35.3027 13.6151 35.29 13.5791 35.268 13.5491C35.2459 13.519 35.2154 13.4962 35.1804 13.4834C35.1454 13.4707 35.1073 13.4686 35.0711 13.4775L17.6064 17.7438C17.5278 17.7628 17.4558 17.8028 17.398 17.8595C17.3403 17.9162 17.299 17.9874 17.2785 18.0656L14.8139 27.3841C14.7874 27.4835 14.796 27.5889 14.8382 27.6827C14.8804 27.7765 14.9537 27.8528 15.0456 27.8989L28.8911 34.8675C28.9199 34.8821 28.9425 34.9067 28.9544 34.9367C28.9664 34.9667 28.9669 35.0001 28.956 35.0305C28.945 35.0609 28.9233 35.0862 28.8949 35.1017C28.8665 35.1172 28.8335 35.1218 28.802 35.1145L24.7176 34.1855L21.0038 40.2645C20.9806 40.3033 20.9706 40.3487 20.9753 40.3937C20.9801 40.4387 20.9993 40.481 21.0301 40.5141C21.0608 40.5473 21.1015 40.5696 21.1461 40.5777C21.1906 40.5858 21.2366 40.5793 21.277 40.559L30.3403 35.8271C30.457 35.7656 30.5575 35.6772 30.6332 35.5692L34.8471 29.5339C34.8764 29.4916 34.8968 29.4438 34.9072 29.3933C34.9176 29.3429 34.9177 29.2909 34.9075 29.2404C34.8972 29.19 34.877 29.1421 34.8478 29.0997C34.8186 29.0572 34.7812 29.0211 34.7378 28.9935L20.342 19.7717C20.3174 19.7548 20.3001 19.7292 20.2935 19.7001C20.2868 19.6709 20.2914 19.6403 20.3063 19.6144C20.3211 19.5885 20.3452 19.5691 20.3737 19.5601C20.4022 19.551 20.433 19.5531 20.4601 19.5657L29.0949 23.937Z" fill="#0515A5"/>
<path d="M23.3863 34.7894L28.7182 34.2724L24.6399 30.8498L21.3867 36.2222L23.3863 34.7894Z" fill="#CECECE"/>
<path d="M27.0669 21.8964L18.1928 17.9569L17.7949 18.8722L26.5494 24.7217L31.8021 15.9672L27.0669 21.8964Z" fill="#CECECE"/>
<path d="M27.6709 22.8336L33.8553 12.655C33.8746 12.6231 33.8841 12.5862 33.8824 12.549C33.8808 12.5117 33.8682 12.4758 33.8461 12.4457C33.8241 12.4157 33.7936 12.3928 33.7586 12.3801C33.7235 12.3673 33.6855 12.3652 33.6493 12.3741L16.1845 16.6399C16.1059 16.6589 16.0339 16.6989 15.9762 16.7556C15.9185 16.8123 15.8772 16.8835 15.8567 16.9618L13.3921 26.2802C13.3655 26.3797 13.3741 26.4852 13.4163 26.5791C13.4585 26.6729 13.5318 26.7494 13.6238 26.7955L27.4692 33.7636C27.4981 33.7782 27.5206 33.8028 27.5326 33.8328C27.5446 33.8628 27.5451 33.8962 27.5341 33.9266C27.5232 33.957 27.5014 33.9823 27.4731 33.9978C27.4447 34.0133 27.4116 34.0179 27.3801 34.0106L23.2958 33.0816L19.5831 39.1611C19.5596 39.2 19.5495 39.2454 19.5541 39.2905C19.5588 39.3356 19.578 39.3779 19.6089 39.4111C19.6397 39.4443 19.6806 39.4666 19.7252 39.4745C19.7699 39.4825 19.8159 39.4757 19.8563 39.4551L28.9196 34.7238C29.0361 34.6622 29.1363 34.5738 29.2119 34.4658L33.4258 28.43C33.455 28.3877 33.4754 28.3399 33.4857 28.2896C33.496 28.2392 33.4961 28.1873 33.4859 28.1369C33.4757 28.0865 33.4554 28.0386 33.4263 27.9962C33.3972 27.9538 33.3599 27.9178 33.3165 27.8901L18.9202 18.6684C18.8946 18.6519 18.8763 18.6261 18.8691 18.5965C18.8618 18.5669 18.8662 18.5357 18.8814 18.5092C18.8965 18.4827 18.9212 18.4631 18.9504 18.4543C18.9795 18.4454 19.011 18.4482 19.0382 18.4618L27.6709 22.8336Z" fill="white"/>
</svg>
