<svg width="30" height="31" viewBox="0 0 30 31" fill="none" xmlns="http://www.w3.org/2000/svg">
<path id="spotify" d="M14.9706 0.965332C6.73712 0.965332 0.0625 7.65276 0.0625 15.9017C0.0625 24.1513 6.73724 30.8382 14.9706 30.8382C23.2046 30.8382 29.8786 24.1513 29.8786 15.9017C29.8786 7.65335 23.2046 0.966149 14.9703 0.966149L14.9704 0.965449L14.9706 0.965332ZM21.8072 22.5081C21.5401 22.9468 20.9669 23.0859 20.5289 22.8166C17.0287 20.6745 12.6224 20.1893 7.43314 21.3772C7.19284 21.432 6.94066 21.389 6.73204 21.2575C6.52342 21.1261 6.37544 20.917 6.32062 20.6763C6.29331 20.5571 6.28973 20.4337 6.31008 20.3131C6.33044 20.1926 6.37433 20.0772 6.43924 19.9737C6.50415 19.8701 6.58881 19.7804 6.68837 19.7097C6.78793 19.639 6.90043 19.5886 7.01944 19.5615C12.6985 18.2616 17.5696 18.8212 21.4992 21.2274C21.9372 21.4967 22.076 22.0693 21.8072 22.5081ZM23.6319 18.4411C23.2953 18.9889 22.5797 19.162 22.0333 18.8249C18.026 16.3571 11.9176 15.6423 7.17784 17.0838C6.56311 17.2698 5.91391 16.9228 5.72733 16.3079C5.54214 15.6921 5.88876 15.0428 6.50243 14.8556C11.9165 13.2096 18.6473 14.0069 23.2492 16.8402C23.7957 17.1774 23.9684 17.8942 23.6319 18.4411ZM23.7886 14.206C18.9837 11.3466 11.0565 11.0836 6.46912 12.4787C5.73246 12.7026 4.95339 12.2859 4.73024 11.5478C4.50697 10.8094 4.92241 10.0294 5.65966 9.80501C10.9256 8.20331 19.6799 8.51289 25.2116 11.8031C25.8757 12.1971 26.0928 13.0545 25.6994 13.7174C25.3078 14.3814 24.4496 14.6002 23.7893 14.206H23.7886Z" fill="#1ED760"/>
</svg>
