<svg width="50" height="50" viewBox="0 0 50 50" fill="none" xmlns="http://www.w3.org/2000/svg">
<path d="M24.8582 15.9C19.8159 15.9 15.7078 19.9855 15.7078 25C15.7078 30.0145 19.8159 34.1 24.8582 34.1C29.9005 34.1 34.0087 30.0145 34.0087 25C34.0087 19.9855 29.9005 15.9 24.8582 15.9ZM48.3444 23.5307L39.3178 19.0471L42.5109 9.53C42.9399 8.24084 41.7103 7.01802 40.4235 7.45407L30.8537 10.6296L26.3356 1.64334C25.7256 0.430004 23.9908 0.430004 23.3808 1.64334L18.8723 10.6201L9.29293 7.44459C7.99662 7.01802 6.76703 8.24084 7.20548 9.52052L10.3986 19.0376L1.37208 23.5307C0.152016 24.1374 0.152016 25.8626 1.37208 26.4693L10.3986 30.9529L7.20548 40.4795C6.77656 41.7687 8.00615 42.9915 9.29293 42.5554L18.8628 39.3799L23.3713 48.3567C23.9813 49.57 25.7161 49.57 26.3261 48.3567L30.8346 39.3799L40.4044 42.5554C41.7008 42.982 42.9303 41.7592 42.4919 40.4795L39.2988 30.9624L48.3253 26.4788C49.5644 25.8626 49.5644 24.1374 48.3444 23.5307ZM33.4844 33.5787C28.7281 38.3088 20.9883 38.3088 16.232 33.5787C11.4757 28.8485 11.4757 21.1515 16.232 16.4214C20.9883 11.6913 28.7281 11.6913 33.4844 16.4214C38.2407 21.1515 38.2407 28.8485 33.4844 33.5787Z" fill="#F7DF1E"/>
</svg>
