<svg width="50" height="54" viewBox="0 0 50 54" fill="none" xmlns="http://www.w3.org/2000/svg">
<path d="M28.321 8.47777V16.5912L42.3727 24.7046V16.5912L28.321 8.47777ZM0.216797 16.5912V24.7046L7.24264 28.7604V20.6479L0.216797 16.5912ZM21.2943 20.6479L14.2685 24.7046V49.043L21.2943 53.0997V36.8738L28.321 40.9305V32.8171L21.2943 28.7604V20.6479Z" fill="#E55B2D"/>
<path d="M28.3206 8.47777L7.24219 20.6479V28.7604L21.2939 20.6479V28.7604L28.3206 24.7046V8.47777ZM49.399 12.5345L42.3723 16.5912V24.7046L49.399 20.6479V12.5345ZM35.3464 28.7604L28.3206 32.8171V40.9305L35.3464 36.8738V28.7604ZM28.3206 40.9305L21.2939 36.8738V53.0997L28.3206 49.043V40.9305Z" fill="#ED8E24"/>
<path d="M28.321 0.365219L0.216797 16.5912L7.24264 20.6479L28.321 8.47777L42.3727 16.5912L49.3994 12.5345L28.321 0.365219ZM28.321 24.7046L21.2943 28.7604L28.321 32.8171L35.3469 28.7604L28.321 24.7046Z" fill="#F8BF3C"/>
</svg>
