<svg width="128" height="103" viewBox="0 0 128 103" fill="none" xmlns="http://www.w3.org/2000/svg">
<path id="twitter" d="M114.178 26.0153C114.258 27.1367 114.258 28.2584 114.258 29.3798C114.258 63.5838 88.2211 102.995 40.6327 102.995C25.9716 102.995 12.3521 98.7492 0.89563 91.38C2.9787 91.6201 4.98137 91.7003 7.14458 91.7003C19.2418 91.7003 30.3779 87.6151 39.2707 80.6461C27.8944 80.4057 18.3606 72.9561 15.0759 62.7028C16.6783 62.943 18.2805 63.1032 19.9631 63.1032C22.2863 63.1032 24.6098 62.7827 26.7728 62.2222C14.9158 59.8189 6.02278 49.4056 6.02278 36.8293V36.509C9.46759 38.4315 13.4737 39.6331 17.7195 39.7931C10.7494 35.147 6.18307 27.2169 6.18307 18.2452C6.18307 13.4391 7.46467 9.03338 9.70803 5.18839C22.4464 20.8887 41.594 31.1417 63.0646 32.2634C62.6641 30.3409 62.4236 28.3385 62.4236 26.3359C62.4236 12.0773 73.9603 0.462402 88.3008 0.462402C95.7515 0.462402 102.481 3.58643 107.208 8.63296C113.056 7.51156 118.664 5.34866 123.632 2.3849C121.709 8.3928 117.623 13.4393 112.255 16.6432C117.463 16.0828 122.51 14.6406 127.157 12.6382C123.632 17.7646 119.225 22.3303 114.178 26.0153Z" fill="white"/>
</svg>
