<svg width="50" height="50" viewBox="0 0 50 50" fill="none" xmlns="http://www.w3.org/2000/svg">
<path d="M0.121094 24.5913V0H49.3037V49.1826H0.121094" fill="#007ACC"/>
<path d="M11.0273 24.8003V26.8045H17.4211V45.0021H21.9582V26.8045H28.3519V24.8372C28.3519 23.7306 28.3519 22.833 28.3027 22.8084C28.3027 22.7715 24.405 22.7593 19.6712 22.7593L11.0642 22.7961V24.8126L11.0273 24.8003ZM39.7623 22.747C41.0164 23.0421 41.9755 23.6077 42.8362 24.5052C43.2911 24.9971 43.9674 25.8578 44.0166 26.0791C44.0166 26.1529 41.8894 27.5914 40.5984 28.3907C40.5492 28.4275 40.3525 28.2185 40.1557 27.8988C39.5164 26.989 38.8647 26.5955 37.8442 26.5217C36.3687 26.4234 35.385 27.198 35.385 28.489C35.385 28.8825 35.4588 29.1038 35.6064 29.4235C35.9383 30.0998 36.5531 30.5055 38.4589 31.3416C41.9755 32.854 43.5002 33.8499 44.4223 35.2762C45.4675 36.8747 45.7011 39.383 45.0002 41.2642C44.2133 43.3176 42.2952 44.707 39.5533 45.1619C38.6926 45.3095 36.7253 45.2849 35.8031 45.125C33.8358 44.7562 31.9545 43.7725 30.7988 42.5061C30.3438 42.0142 29.4708 40.6986 29.52 40.6125L29.9872 40.3174L31.8316 39.2477L33.221 38.4362L33.5407 38.8666C33.9464 39.5059 34.8563 40.3666 35.385 40.6617C36.9835 41.4855 39.1229 41.3749 40.1803 40.4158C40.6353 39.9978 40.832 39.5551 40.832 38.9403C40.832 38.3747 40.7459 38.1165 40.4631 37.6862C40.0697 37.1452 39.2828 36.7025 37.0695 35.7189C34.5243 34.6369 33.4423 33.9483 32.4341 32.8909C31.8562 32.2515 31.3275 31.2555 31.0816 30.4317C30.8971 29.7186 30.8356 27.9726 31.0078 27.2718C31.5365 24.8126 33.3931 23.0912 36.049 22.5994C36.9097 22.4273 38.9385 22.501 39.7869 22.7224L39.7623 22.747Z" fill="white"/>
</svg>
